<svg xmlns="http://www.w3.org/2000/svg" viewBox="0 0 24 21"><path d="M19.5 21H4.7c-.6 0-1-.4-1-1V8.4c0-.6.4-1 1-1h14.9c.6 0 1 .4 1 1V20c-.1.6-.5 1-1.1 1z"/><path d="M20.8 8.7H3.4c-.3 0-.5-.2-.5-.5v-.6c0-.3.2-.5.5-.5h17.3c.3 0 .5.2.5.5v.6c.1.2-.1.5-.4.5zM6.7 18.2L0 11.3l1.6-1.7 6.8 7zM17.3 18.1l6.7-6.9-1.5-1.6-6.7 7zM18.7 5.3h-.2c-4-.7-6-2.8-6.2-3l-.1-.1c0-.3 2.4-2.9 4.8-1.9.1 0 .2.1.3.1 2.3 1.2 1.7 4.7 1.4 4.9z"/><path d="M15.3 6.9c-.9-.5-1.1-.5-1.1-.5s-.2-.1-1.2-.5c-.9-.5 1.4-2.4 1.4-2.4l1.7.8c.1 0 .1 3.1-.8 2.6z"/><g><path d="M4.9 6.6h.2C8.6 6 10.3 4.2 10.5 4l.1-.1c0-.3-2-2.5-4.1-1.7-.1 0-.2.1-.2.1-2.1 1.2-1.6 4.1-1.4 4.3z"/><path d="M7.9 8c.8-.4.9-.5.9-.5s.2 0 1-.4-1.2-2-1.2-2l-1.5.7s0 2.6.8 2.2z"/></g></svg>
