<svg xmlns="http://www.w3.org/2000/svg" viewBox="0 0 18 24"><style>.st0{fill:#fff}</style><path d="M17 24H3.4c-.5 0-1-.5-1-1V1c0-.6.5-1 1-1H17c.5 0 1 .4 1 1v22c0 .5-.5 1-1 1z"/><path class="st0" d="M15.6 24H3.5c-.6 0-1-.4-1-1V1c0-.6.4-1 1-1h12.1c.6 0 1 .4 1 1v22c0 .6-.5 1-1 1z"/><path d="M14.6 24H1c-.6 0-1-.5-1-1V1c0-.6.4-1 1-1h13.6c.6 0 1 .5 1 1v22c0 .5-.5 1-1 1z"/><path class="st0" d="M2.2 2.4h11.1v10.5H2.2z"/><path d="M11.7 8.2c0 .1-.1.1-.2.1-4.3 1.5-7.2.2-7.5 0-.1 0-.1-.1-.2-.1-.2-.4 1-4.9 3.8-5.1h.3c2.9.2 4 4.7 3.8 5.1z"/><path d="M9.1 12.2H7.8 6.5c-1.1 0 .3-3.7.3-3.7h2.1c-.1 0 1.3 3.7.2 3.7z"/></svg>
