<svg xmlns="http://www.w3.org/2000/svg" viewBox="0 0 22 24"><style>.st0{fill:#fff}</style><path d="M21 23.9H6.2c-.6 0-1-.5-1-1V1c0-.6.4-1 1-1H21c.5 0 1 .4 1 1v21.9c0 .6-.5 1-1 1z"/><path class="st0" d="M20.2 23.9H5.4c-.6 0-1-.5-1-1V1c0-.6.4-1 1-1h14.8c.5 0 1 .4 1 1v21.9c0 .6-.5 1-1 1z"/><path d="M19.5 23.9H4.6c-.6 0-1-.5-1-1V1c0-.6.5-1 1-1h14.8c.5 0 1 .4 1 1v21.9c.1.6-.4 1-.9 1z"/><path class="st0" d="M6 2.5h12V11H6z"/><path d="M17.7 7.2s-.1.1-.2.1c-3.5 1.1-5.9.1-6.2 0-.1 0-.1-.1-.1-.1-.2-.3.8-3.8 3.1-4h.3c2.4.2 3.3 3.7 3.1 4z"/><path d="M15.6 10.3h-1.1-1.1c-.9 0 .2-2.9.2-2.9h1.7c0 .1 1.2 2.9.3 2.9z"/><path class="st0" d="M9.1 5.2c-2.9 0-5.4 3-5.9 7h1.6C5.3 9.2 7 7 9.1 7c2.1 0 3.9 2.2 4.3 5.2H15c-.5-4-2.9-7-5.9-7z"/><path class="st0" d="M17.9 11.9v10.9c0 .6-.4 1.1-1 1.1H2.6c-.5 0-1-.5-1-1.1V11.9c0-.6.4-1.1 1-1.1h14.3c.5.1 1 .5 1 1.1zm-6 9.4l-.6-4.3c.4-.4.6-1 .6-1.7 0-1.3-1-2.3-2.1-2.3s-2.1 1-2.1 2.3c0 .6.2 1.2.6 1.7l-.7 4.3h4.3z"/><path class="st0" d="M4 13h8.3v9.9H4z"/><path d="M8.3 5.8c-2.8 0-5.2 2.6-5.7 6h1.6c.5-2.6 2.2-4.5 4.2-4.5s3.7 1.9 4.2 4.5H14c-.5-3.4-2.9-6-5.7-6zM16.3 12.8V23c0 .6-.4 1-1 1H1c-.5 0-1-.5-1-1V12.8c0-.6.4-1 1-1h14.3c.5 0 1 .5 1 1zm-6 8.8l-.7-4c.4-.4.6-.9.6-1.5 0-1.2-1-2.2-2.1-2.2S6 14.8 6 16c0 .6.2 1.1.6 1.5l-.7 4h4.4z"/></svg>
