<svg xmlns="http://www.w3.org/2000/svg" viewBox="0 0 22 24"><style>.st0{fill:#fff}</style><path d="M21 23.9H5.4c-.6 0-1-.5-1-1V1c0-.6.4-1 1-1H21c.5 0 1 .4 1 1v21.9c0 .6-.5 1-1 1z"/><path class="st0" d="M20.2 23.9H4.5c-.5 0-1-.5-1-1V1c0-.6.5-1 1-1h15.6c.5 0 1 .4 1 1v21.9c.1.6-.4 1-.9 1z"/><path d="M19.4 23.9H3.8c-.5 0-1-.5-1-1V1c0-.6.5-1 1-1h15.6c.5 0 1 .4 1 1v21.9c0 .6-.4 1-1 1z"/><path class="st0" d="M5.2 2.5h12.5V11H5.2z"/><path d="M17.5 7.2s-.1.1-.2.1c-3.7 1.1-6.2.1-6.5 0-.1 0-.1-.1-.1-.1-.2-.3.8-3.8 3.2-4h.3c2.5.2 3.5 3.7 3.3 4z"/><path d="M15.3 10.3h-1.1-1.1c-.9 0 .2-2.9.2-2.9H15c0 .1 1.3 2.9.3 2.9z"/><path class="st0" d="M9.6 5.9c-3.1 0-5.7 3-6.2 7H5c.5-3 2.4-5.2 4.6-5.2 2.2 0 4.1 2.2 4.6 5.2h1.6c-.6-4-3.2-7-6.2-7z"/><path class="st0" d="M18.5 11.9v10.9c0 .6-.5 1.1-1.1 1.1H1.7c-.6 0-1.1-.5-1.1-1.1V11.9c0-.6.5-1.1 1.1-1.1h15.7c.6.1 1.1.5 1.1 1.1zM12 21.3l-.8-4.3c.4-.4.7-1 .7-1.7 0-1.3-1.1-2.3-2.4-2.3s-2.4 1-2.4 2.3c0 .6.3 1.2.7 1.7l-.7 4.3H12z"/><path class="st0" d="M3.1 13h8.7v9.9H3.1z"/><path d="M8.7 5.8c-3 0-5.4 2.6-6 6h1.6c.5-2.6 2.3-4.5 4.4-4.5 2.1 0 3.9 1.9 4.4 4.5h1.6c-.6-3.4-3.1-6-6-6z"/><path d="M17 11.9v11c0 .6-.5 1.1-1 1.1H1c-.6 0-1-.5-1-1.1v-11c0-.6.5-1.1 1-1.1h15c.6.1 1 .6 1 1.1zm-6.2 9.5l-.7-4.3c.4-.4.7-1 .7-1.7 0-1.3-1-2.4-2.3-2.4s-2.3 1.1-2.3 2.4c0 .6.3 1.2.7 1.7l-.7 4.3h4.6z"/></svg>
