<svg xmlns="http://www.w3.org/2000/svg" viewBox="0 0 24 23"><path d="M16 23h-4-4c-3.4 0 .9-8.4.9-8.4s3 .4 6.2-.1c.6 1.2 4.4 8.5.9 8.5zM23.9 11.7c-.1.1-.3.2-.7.3-12.8 3.2-21.7.3-22.7-.1-.2-.1-.4-.2-.5-.3C-.5 10.7 2.9.6 11.4 0h1.1c8.6.6 12 10.7 11.4 11.7zM10.8 5.2c-1.5 0-2.7.6-2.7 1.3s1.2 1.3 2.7 1.3 2.7-.6 2.7-1.3-1.2-1.3-2.7-1.3zm5.4 4.8c-.9 0-1.7.4-1.7 1s.7 1 1.7 1c.9 0 1.7-.4 1.7-1s-.8-1-1.7-1zM4.8 6c-.6 0-1 .2-1 .5s.4.5 1 .5.9-.2.9-.5-.4-.5-.9-.5zm10.3 1.8c-.3 0-.6.2-.6.4s.3.4.6.4.6-.2.6-.4-.2-.4-.6-.4zm6.5 2.6c-.3 0-.6.2-.6.4s.3.4.6.4.6-.2.6-.4-.2-.4-.6-.4zM8.3 1.7c-.9 0-1.7.4-1.7 1s.7 1 1.7 1 1.7-.4 1.7-1-.8-1-1.7-1zm11.3 4.5c-.9 0-1.7.4-1.7 1s.7 1 1.7 1c.9 0 1.7-.4 1.7-1s-.8-1-1.7-1zm-3.4-3.7c-1.2 0-2.2.6-2.2 1.2s1 1.2 2.2 1.2 2.2-.5 2.2-1.2-.9-1.2-2.2-1.2zM5.1 9.3c-1 0-1.8.5-1.8 1.2 0 .6.8 1.2 1.8 1.2s1.8-.5 1.8-1.2-.8-1.2-1.8-1.2zm6.3 1.5c-.4 0-.6.2-.6.5s.3.5.6.5.6-.2.6-.5c.1-.3-.2-.5-.6-.5zM13 1.2c-.4 0-.6.2-.6.5s.3.5.6.5.6-.2.6-.5-.2-.5-.6-.5z"/></svg>
