<svg xmlns="http://www.w3.org/2000/svg" viewBox="0 0 24 20"><path d="M11.9 13.8h-.5c-.3.1-.6.2-.8.3h-.1V14s.6-.3 1.1-.3c.1.1.2.1.3.1z"/><path d="M11.9 13.8h-.5c-.3.1-.6.2-.8.3h-.1V14s.6-.3 1.1-.3c.1.1.2.1.3.1z"/><path d="M11.9 13.8h-.5c-.3.1-.6.2-.8.3h-.1V14s.6-.3 1.1-.3c.1.1.2.1.3.1z"/><path d="M11.9 13.8h-.5c-.3.1-.6.2-.8.3h-.1V14s.6-.3 1.1-.3c.1.1.2.1.3.1z"/><path d="M11.9 13.8h-.5c-.3.1-.6.2-.8.3h-.1V14s.6-.3 1.1-.3c.1.1.2.1.3.1z"/><path d="M11.8 13.8h-.2c-.5.1-1.1.3-1.1.3v.1h.1c.2-.1.5-.2.8-.3h.2c.1-.1.2-.1.2-.1z"/><path d="M11.9 13.8h-.5c-.3.1-.6.2-.8.3h-.1V14s.6-.3 1.1-.3c.1.1.2.1.3.1z"/><path d="M11.9 13.8h-.5c-.3.1-.6.2-.8.3h-.1V14s.6-.3 1.1-.3c.1.1.2.1.3.1z"/><path d="M11.9 13.8h-.5c-.3.1-.6.2-.8.3h-.1V14s.6-.3 1.1-.3c.1.1.2.1.3.1z"/><path d="M11.9 13.8h-.5c-.3.1-.6.2-.8.3h-.1V14s.6-.3 1.1-.3c.1.1.2.1.3.1z"/><path d="M23.4 14.6c-.7-.6-1.8-.4-2.4.3-.1.2-.3.4-.3.6l-1.3-1.1-.2-.2-.1-.2h.1c.2 0 .4-.1.6-.2.3-.1.5-.2.5-.3.2-.4-.3-2.9-1.7-5.3-.3-.6-.7-1.1-1.1-1.6l1.3-1 .9-.7c0 .1.1.1.2.2.6.7 1.6.8 2.3.3s.7-1.6.1-2.3c-.4-.4-.9-.6-1.4-.6.1-.5 0-1-.4-1.4-.6-.7-1.6-.8-2.3-.3-.7.5-.7 1.6-.1 2.3.1.1.3.3.4.3l-.9.8-1.4 1.1-.3-.3c-.1-.1-.3-.2-.4-.3-1-.7-2-1.1-3.3-1.2h-.7-.1c-1.3.1-2.4.6-3.4 1.3L6.4 3.5 5.7 3c.2-.1.3-.2.4-.3C6.7 2 6.6.9 6 .4S4.2-.1 3.6.6c-.4.4-.5 1-.4 1.4-.5 0-1 .2-1.4.6-.6.8-.5 1.9.2 2.4s1.7.4 2.3-.3c.1-.1.1-.2.2-.3l.7.6 1.4 1.2c-.2.1-.3.3-.5.5-.4.5-.7 1-1 1.6-1.3 2.4-1.9 4.8-1.7 5.2 0 .1.2.2.3.2.1 0 .4.2.7.3.1 0 .2.1.3.1.1 0 .1.1.2.1h.2l-.7.5-1.2 1-.3-.6c-.6-.7-1.7-.9-2.4-.3s-.8 1.6-.1 2.4c.4.4.9.7 1.4.7-.1.5 0 1 .4 1.5.6.7 1.7.9 2.4.3.7-.6.8-1.6.1-2.4l-.1-.1 1-.8 1.8-1.5H7.7v.1c-.1 1.4-.1 1.8 0 2.7 0 .1.1.2.1.3.3.6.9 1.5 1.8-.2 1 1.8 1.9.3 2 0 .1.3 1 1.9 2 0 .9 1.7 1.8 1 2 .3 0-.1.1-.2.1-.3 0-.7.1-.8-.1-2.7V15h.2c.2 0 .5-.1.8-.2l.2.2 1.4 1.2 1.1 1-.1.1c-.6.7-.6 1.8.1 2.4.7.6 1.8.4 2.4-.3.4-.4.5-1 .4-1.5.5 0 1-.2 1.4-.7.7-1 .6-2-.1-2.6zM9.8 12.2l-.2.2-.4.4c-.3.3-.7.5-1.2.6-.4 0-.9-.1-1.3-.4-.1-.1-.2-.1-.3-.2l-.2-.2c-.1-.1-.2-.2-.2-.3-.2-.3-.3-.8-.1-1.3.1-.5.3-.9.7-1.2.7-.7 2-.7 2.9-.3.1 0 .2.1.3.1h.2c.1 0 .1.1.2.1.2.1.3.2.4.4 0 .1.1.1.1.2v.1c0 .7-.6 1.5-.9 1.8zm3.4 1.9s0 .1 0 0c0 0-.8-.3-1.3-.4h-.4c-.3.1-.6.2-.8.3h-.1v-.1-.2c0-.1.1-.3.2-.5 0-.1.1-.2.2-.2.2-.3.5-.5.9-.5h.1c.3 0 .6.2.8.4.1.1.2.3.3.4.1.2.2.3.2.4-.1.3-.1.4-.1.4zm4.7-1.7c-.1.1-.2.3-.3.3-.1.1-.3.2-.4.3-.4.2-.8.3-1.2.3-.3 0-.6-.2-.9-.3-.1 0-.2 0-.3-.1l-.2-.2c-.1-.1-.3-.2-.3-.3-.3-.3-.7-.8-.9-1.3-.2-.5-.1-1 .5-1.3h.1c.2-.1.3-.1.5-.2 1-.3 2.2-.3 2.9.3.3.3.6.7.7 1.2 0 .5-.1.9-.2 1.3z"/></svg>
