<svg xmlns="http://www.w3.org/2000/svg" viewBox="0 0 18 24"><path d="M18 12v10c0 .7 0 1.4-.6 1.7-.6.3-1.2.4-1.7 0-.6-.4-.5-1.1-.5-1.8 0-2.9.2-5.8.2-8.7 0-.9-.9-1.1-1.7-1.3-.3-.1-.7-.5-.7-.7 0-2.7-.4-5.6.3-8 .5-1.7 1-2 1.7-2.4.9-.5 1.2-.6 1.8-.7 1.1-.3 1.2.5 1.2 1.8V12zM1.9 18.1v-4.2c0-.3.3-.5.4-.7.2-.3.2-1.4.2-1.4v-.9c0-.8-.3-1.4-1-1.8C.5 8.4 0 7.3 0 6V1.2C0 .5.3.1.8.1s.9.4.9 1.1V5c0 .4-.1.8.4.8s.4-.5.4-.8V1.2c0-.7.3-1.1.8-1.1s.9.4.9 1v4c0 .3 0 .7.5.7.4 0 .4-.4.4-.7V1.2c0-.7.3-1.1.8-1.1s.8.4.8 1.1V6c0 1.3-.5 2.3-1.6 3-.7.4-1 1-1 1.9v.9s-.1 1 .2 1.4c.2.3.4.3.4.7 0 2.6.1 5.4.1 8 0 1.2-.6 2-1.6 2s-1.5-.8-1.5-2c.2-1.3.2-2.5.2-3.8z"/></svg>
